<svg width="148" height="61" viewBox="0 0 148 61" fill="none" xmlns="http://www.w3.org/2000/svg">
<path d="M45.0718 23.62V28.52H51.6518V31.628H45.0718V36.808H52.4918V40H41.1518V20.428H52.4918V23.62H45.0718ZM67.5342 19.28V40H63.6142V19.28H67.5342ZM84.9032 40.252C83.6338 40.252 82.4952 40.028 81.4872 39.58C80.4792 39.1133 79.6765 38.488 79.0792 37.704C78.5005 36.92 78.1832 36.052 78.1272 35.1H82.0752C82.1498 35.6973 82.4392 36.192 82.9432 36.584C83.4658 36.976 84.1098 37.172 84.8752 37.172C85.6218 37.172 86.2005 37.0227 86.6112 36.724C87.0405 36.4253 87.2552 36.0427 87.2552 35.576C87.2552 35.072 86.9938 34.6987 86.4712 34.456C85.9672 34.1947 85.1552 33.9147 84.0352 33.616C82.8778 33.336 81.9258 33.0467 81.1792 32.748C80.4512 32.4493 79.8165 31.992 79.2752 31.376C78.7525 30.76 78.4912 29.9293 78.4912 28.884C78.4912 28.0253 78.7338 27.2413 79.2192 26.532C79.7232 25.8227 80.4325 25.2627 81.3472 24.852C82.2805 24.4413 83.3725 24.236 84.6232 24.236C86.4712 24.236 87.9458 24.7027 89.0472 25.636C90.1485 26.5507 90.7552 27.792 90.8672 29.36H87.1152C87.0592 28.744 86.7978 28.2587 86.3312 27.904C85.8832 27.5307 85.2765 27.344 84.5112 27.344C83.8018 27.344 83.2512 27.4747 82.8592 27.736C82.4858 27.9973 82.2992 28.3613 82.2992 28.828C82.2992 29.3507 82.5605 29.752 83.0832 30.032C83.6058 30.2933 84.4178 30.564 85.5192 30.844C86.6392 31.124 87.5632 31.4133 88.2912 31.712C89.0192 32.0107 89.6445 32.4773 90.1672 33.112C90.7085 33.728 90.9885 34.5493 91.0072 35.576C91.0072 36.472 90.7552 37.2747 90.2512 37.984C89.7658 38.6933 89.0565 39.2533 88.1232 39.664C87.2085 40.056 86.1352 40.252 84.9032 40.252ZM108.673 40.252C107.18 40.252 105.836 39.9253 104.641 39.272C103.446 38.6 102.504 37.6573 101.813 36.444C101.141 35.2307 100.805 33.8307 100.805 32.244C100.805 30.6573 101.15 29.2573 101.841 28.044C102.55 26.8307 103.512 25.8973 104.725 25.244C105.938 24.572 107.292 24.236 108.785 24.236C110.278 24.236 111.632 24.572 112.845 25.244C114.058 25.8973 115.01 26.8307 115.701 28.044C116.41 29.2573 116.765 30.6573 116.765 32.244C116.765 33.8307 116.401 35.2307 115.673 36.444C114.964 37.6573 113.993 38.6 112.761 39.272C111.548 39.9253 110.185 40.252 108.673 40.252ZM108.673 36.836C109.382 36.836 110.045 36.668 110.661 36.332C111.296 35.9773 111.8 35.4547 112.173 34.764C112.546 34.0733 112.733 33.2333 112.733 32.244C112.733 30.7693 112.341 29.64 111.557 28.856C110.792 28.0533 109.849 27.652 108.729 27.652C107.609 27.652 106.666 28.0533 105.901 28.856C105.154 29.64 104.781 30.7693 104.781 32.244C104.781 33.7187 105.145 34.8573 105.873 35.66C106.62 36.444 107.553 36.836 108.673 36.836ZM135.796 24.264C137.644 24.264 139.138 24.852 140.276 26.028C141.415 27.1853 141.984 28.8093 141.984 30.9V40H138.064V31.432C138.064 30.2 137.756 29.2573 137.14 28.604C136.524 27.932 135.684 27.596 134.62 27.596C133.538 27.596 132.679 27.932 132.044 28.604C131.428 29.2573 131.12 30.2 131.12 31.432V40H127.2V24.488H131.12V26.42C131.643 25.748 132.306 25.2253 133.108 24.852C133.93 24.46 134.826 24.264 135.796 24.264Z" fill="white"/>
<path d="M14.1933 17.9646C14.1779 17.9368 15.58 17.5702 15.6633 17.5586C18.3852 17.1779 25.5718 16.3505 27.9825 17.9314C27.9862 17.9338 26.8329 18.0658 26.2563 18.1087C24.7814 18.2182 14.774 19.0123 14.1933 17.9646ZM27.967 17.9272C27.9852 17.9272 28 17.9435 28 17.9635C28 17.9836 27.9852 17.9999 27.967 17.9999C27.9488 17.9999 27.934 17.9836 27.934 17.9635C27.934 17.9435 27.9488 17.9272 27.967 17.9272ZM14.1736 17.9343C14.1974 17.9165 14.5151 19.1148 14.5328 19.2218C15.1065 22.6895 14.2392 26.3631 14.2933 29.8479C14.298 30.1536 14.4849 31.0505 14.2882 30.8566C13.8867 30.4606 13.4848 22.4906 13.8036 19.6079C13.8323 19.3483 13.9527 18.1 14.1736 17.9343ZM14.1938 30.8266C14.2918 30.8266 14.3713 30.9142 14.3713 31.0223C14.3713 31.1304 14.2918 31.218 14.1938 31.218C14.0958 31.218 14.0163 31.1304 14.0163 31.0223C14.0163 30.9142 14.0958 30.8266 14.1938 30.8266ZM14.1943 17.9633C14.2117 18.0426 12.6326 18.3099 12.5441 18.3211C8.65316 18.8132 4.58093 18.3175 0.768387 18.3975C0.618673 18.4006 13.82 16.2593 14.1943 17.9633ZM0.34294 17.9285C0.604561 15.7251 1.17428 26.5369 1.20029 29.7215C1.20356 30.1221 1.2008 30.9089 1.20226 30.9236C1.26786 31.5806 0.395222 31.7935 0.27179 31.1269C-0.372236 27.6486 0.328942 22.4236 0.339968 18.5583C0.340551 18.3537 0.318756 18.1322 0.34294 17.9285ZM0.691822 31.5429C-0.111939 31.4151 0.367001 30.5029 0.956207 30.497C4.96093 30.4568 8.96558 30.4098 12.9701 30.3461C13.3405 30.3402 14.06 30.338 14.0814 30.3356C14.8635 30.2492 15.1268 31.5061 14.3327 31.703C11.0472 32.5179 5.93965 31.5985 2.20835 31.5603C1.71813 31.5553 1.1788 31.6203 0.691822 31.5429ZM27.9902 44.055C27.993 44.0584 26.8838 44.2063 26.3281 44.2525C23.4874 44.4887 20.648 44.8 17.7983 44.8688C16.8544 44.8916 14.6693 45.2404 13.8809 44.6973C11.63 43.1468 27.2051 43.1165 27.9902 44.055ZM14.1938 43.3747C14.5476 43.3747 14.8344 43.6909 14.8344 44.081C14.8344 44.4711 14.5476 44.7873 14.1938 44.7873C13.84 44.7873 13.5532 44.4711 13.5532 44.081C13.5532 43.6909 13.84 43.3747 14.1938 43.3747ZM14.6301 43.5638C14.5692 43.4714 13.5417 44.4654 13.5547 44.0397C13.6721 40.1847 14.1115 36.3371 14.0723 32.4764C14.0695 32.1989 13.9933 31.0288 14.0598 31.1506C14.7307 32.38 14.6626 40.1357 14.8087 43.486C14.8339 44.0634 14.9903 44.1109 14.6301 43.5638ZM14.5938 31.5629C14.6651 31.5182 13.5246 30.6262 13.8947 30.4074C14.7545 29.8989 19.9651 30.4977 22.2359 30.6332C23.3972 30.7025 27.0273 30.2085 27.9854 30.992C27.9941 30.9991 25.0872 31.238 23.6362 31.3264C20.7267 31.5036 17.8206 31.6556 14.9069 31.7065C14.4521 31.7145 13.9998 31.9355 14.5938 31.5629ZM27.967 30.9859C27.9852 30.9859 28 31.0022 28 31.0223C28 31.0423 27.9852 31.0586 27.967 31.0586C27.9488 31.0586 27.934 31.0423 27.934 31.0223C27.934 31.0022 27.9488 30.9859 27.967 30.9859Z" fill="#EE4B60"/>
</svg>
